PathFileType	4	(X/Y/Z)	pose_F01_0-75.trc
DataRate	CameraRate	NumFrames	NumMarkers	Units	OrigDataRate	OrigDataStartFrame	OrigNumFrames
30	30	7	21	m	30	42	75
Frame#	Time	CHip			RHip			RKnee			RAnkle			RBigToe			RSmallToe			RHeel			LHip			LKnee			LAnkle			LBigToe			LSmallToe			LHeel			Neck			Nose			RShoulder			RElbow			RWrist			LShoulder			LElbow			LWrist			
		X1	Y1	Z1	X2	Y2	Z2	X3	Y3	Z3	X4	Y4	Z4	X5	Y5	Z5	X6	Y6	Z6	X7	Y7	Z7	X8	Y8	Z8	X9	Y9	Z9	X10	Y10	Z10	X11	Y11	Z11	X12	Y12	Z12	X13	Y13	Z13	X14	Y14	Z14	X15	Y15	Z15	X16	Y16	Z16	X17	Y17	Z17	X18	Y18	Z18	X19	Y19	Z19	X20	Y20	Z20	X21	Y21	Z21	
42	1.4	-0.2778883020147024	1.884943471069053	-0.5259253527790496	-0.27963604473863224	1.881940900878195	-0.4710582956034193	-0.26002826485598834	1.7389410891368542	-0.46551865186234603	-0.27420062566086123	1.5828888939840124	-0.366905851436175	-0.24228451880577384	1.5412945456685685	-0.42169219101028227	-0.24973215478364266	1.541048625325679	-0.37983315060840755	-0.28551130739318087	1.5759639561524514	-0.3490876450387802	-0.2723473997462082	1.8863689016761076	-0.5790048455690818	-0.27448034667542504	1.7395786416076848	-0.5648649771130408	-0.29133990844131236	1.609619638294974	-0.5026701168995129	-0.2717866803594041	1.5843327615721217	-0.5833165753845779	-0.26578347987539347	1.572712285545655	-0.5871123156912827	-0.2898532003799791	1.604915759797605	-0.48179009494798103	-0.2588638273315317	2.0405004356281116	-0.557126862797026	-0.2264642370556361	2.1023044715651875	-0.6195935855724345	-0.2685041209968582	2.0410593867250735	-0.46985183344056997	-0.2790136462354356	1.9526557282433579	-0.4060270594717124	-0.29046062704595665	1.8717099416353653	-0.3263240405610322	-0.25412612996634576	2.044428309240558	-0.6404369047053309	-0.263596419840332	1.9625775163834118	-0.6420565320800576	-0.2307541523974757	1.9248469716232235	-0.7557720329520478
43	1.4333333333333333	-0.27647805304219075	1.8901645800174647	-0.5232576732322279	-0.28020796271332077	1.8884865362062124	-0.46659263469128304	-0.2670644370324775	1.7388385425180761	-0.4533211551789148	-0.27647502406764957	1.5801901903447828	-0.35943338032769206	-0.24258612321103723	1.542044515759704	-0.419047263472362	-0.24811599006334498	1.5382588462022624	-0.376616935206701	-0.28626431680377035	1.5736914865783957	-0.3430177329843159	-0.27111141359381863	1.8902300758939332	-0.5764098390320531	-0.27562650828343177	1.7433457851634648	-0.5596058103020407	-0.29195187081106216	1.6109916834984088	-0.5028660907829217	-0.2727664861565703	1.5866587063469775	-0.583641674442381	-0.26578347987539347	1.572712285545655	-0.5871123156912827	-0.2898532003799791	1.604915759797605	-0.48179009494798103	-0.25992298160906646	2.0443272920301583	-0.5526224928939701	-0.22641388492923586	2.1037938665485565	-0.6200144455558465	-0.2694032424666002	2.04241568478541	-0.4651237378331172	-0.2803347633707037	1.955567824183164	-0.41816737145519645	-0.29000838803942525	1.8754906734531034	-0.35553721499531815	-0.25531105276735405	2.0457473070691976	-0.6356566615612967	-0.26390190285019055	1.9636236517486452	-0.6340204992941444	-0.22968343649195477	1.9274534588495524	-0.741496690529913
44	1.4666666666666666	-0.2747647089644565	1.887468651279413	-0.5163678395937903	-0.2786038601495019	1.8847218122550422	-0.4596362327251872	-0.26889921327696115	1.7386865482044418	-0.44221375926723816	-0.2762704538890083	1.581990784760981	-0.35961157029110064	-0.24288772761630062	1.5427944858508393	-0.4164023359344417	-0.2501585201292055	1.5392109822235498	-0.37421111606296836	-0.2829588522650936	1.5745556438946036	-0.3422415798291572	-0.2701674655992108	1.890149054668902	-0.5730482338988583	-0.274726423540625	1.7439120576488443	-0.5563667284537593	-0.29256383318081197	1.612363728701844	-0.5030620646663303	-0.2718962312742457	1.58737768797132	-0.580307858388137	-0.26578347987539347	1.572712285545655	-0.5871123156912827	-0.2898532003799791	1.604915759797605	-0.48179009494798103	-0.2649548115991624	2.044269991016753	-0.5429601306956682	-0.2262205446513039	2.1081232150082756	-0.6193212419509815	-0.2684054807322881	2.0449221453394406	-0.4622009812374323	-0.2813233604817447	1.9530486802383213	-0.41278609705635483	-0.28799115024214306	1.8715227874078812	-0.35698484566999306	-0.25346732287626167	2.0479850461805382	-0.6298866452464502	-0.2630225349497165	1.9650025552766173	-0.6312626735295873	-0.22693612097681173	1.9340503079988958	-0.7331789102472436
45	1.5	-0.27467374281113194	1.8901779359364395	-0.5168453382607446	-0.2794837902276945	1.8875140664437	-0.4632380361919762	-0.2717129000067745	1.7397018679004592	-0.42552063919111177	-0.2787959587816548	1.5829052892962259	-0.3566249430516079	-0.24016773110349376	1.5421107884478407	-0.4142060228414577	-0.24899610796517588	1.539288087800045	-0.37078497596650106	-0.2855317953639149	1.5760459941046725	-0.3394791019503817	-0.27009795998471003	1.8929271607133864	-0.5734319717911738	-0.27680298210873233	1.7474587874280583	-0.5546345179641607	-0.2939862048973767	1.6166362511915955	-0.5107797683998316	-0.27629776114771826	1.5882058594227215	-0.5756910021201936	-0.26578347987539347	1.572712285545655	-0.5871123156912827	-0.2898532003799791	1.604915759797605	-0.48179009494798103	-0.26775165665845924	2.047145177703301	-0.5353359148415126	-0.22836836960578027	2.108401814307562	-0.6177525190031317	-0.2739602017186347	2.0468402705056348	-0.4556152206851894	-0.28001495965341744	1.9554048427316881	-0.4097874071510018	-0.272248648861447	1.879780735770328	-0.3667008325777976	-0.25453423264715097	2.0489472878666755	-0.624363992226551	-0.26281128260955644	1.9669399933056992	-0.6310217219801512	-0.22907838245081433	1.943711745275227	-0.7435392666896289
46	1.5333333333333334	-0.27444989689378757	1.89402569161934	-0.5173985134700527	-0.2791417163199955	1.892390786023845	-0.46402897871909915	-0.2754996394811434	1.740924149955289	-0.4213654967823602	-0.2793324632270221	1.5812704936757285	-0.3514949441771622	-0.24295081437130658	1.5405279188071979	-0.41575524669015335	-0.249175758399221	1.539649114292054	-0.37080158263887447	-0.28527150098956816	1.5776570069332732	-0.33991115014132794	-0.27005576205822995	1.8969463517970344	-0.5740481421199825	-0.2771030058735211	1.7499852149984874	-0.5547800479228315	-0.295899915271545	1.620845730740581	-0.5181965386082714	-0.2801377654262814	1.5886340986475482	-0.5675658947595851	-0.26578347987539347	1.572712285545655	-0.5871123156912827	-0.2898532003799791	1.604915759797605	-0.48179009494798103	-0.2686779259319739	2.0494821170591613	-0.5304538990016949	-0.23781027936150326	2.1071382360457735	-0.6041224174103192	-0.27877239489442635	2.046567569099883	-0.4460308880122844	-0.27958251459511724	1.965347289639554	-0.4111783717630748	-0.2561549664821679	1.9129194354769237	-0.38141193920222505	-0.2567540509833652	2.0511465712600354	-0.6144279115125791	-0.2616333611029276	1.9707197983433826	-0.6283513412180425	-0.22764788566145736	1.958970302652514	-0.7423106307816865
47	1.5666666666666667	-0.2746882473590641	1.8927771099466493	-0.5172647336647272	-0.2792947271134219	1.8897426692234278	-0.46341400442675496	-0.27439512890316164	1.739740291697613	-0.41808215330501536	-0.2790111761447879	1.5822236972512997	-0.35176116936549656	-0.24153073060453503	1.539431401543701	-0.41209211816005653	-0.24663630313474721	1.5370305239509456	-0.3727743578097875	-0.28523215505479094	1.5749310855822267	-0.3394269356781222	-0.2709748180560673	1.8955432174501365	-0.5769134640500921	-0.27752024430726213	1.7481056434323836	-0.5582020886513145	-0.29602666965311986	1.6186908324325682	-0.5178526938898507	-0.2791239385270454	1.5886167094237202	-0.5642277585571065	-0.2814221344343336	1.5992794685722853	-0.5758656197329869	-0.2898532003799791	1.604915759797605	-0.48179009494798103	-0.2708247336297414	2.046944713644329	-0.5276519057128894	-0.24011304755638868	2.1053371501769544	-0.5931850712118711	-0.2815436409017712	2.046149874440367	-0.43856215241078556	-0.2750157449134091	1.961914061650325	-0.40494520805528406	-1.8560607970655167	1.8933405360010658	1.3646582349613257	-0.26502420884793326	2.0495367977883623	-0.6052258687611097	-0.2625088119595306	1.97306640190463	-0.6231876297746344	-0.22533494883310556	1.9804944348933249	-0.7389670003377381
48	1.6	-0.27659060281486336	1.8888323633771733	-0.5143960989151278	-0.28029316933908976	1.8870452538531703	-0.4576660911906414	-0.27418056514517763	1.7374551189071112	-0.4178702512986394	-0.27909497273800016	1.5827408426713592	-0.35173420625737467	-0.2417355820010368	1.539909636967843	-0.41194785910112497	-0.2485802983938871	1.5368678697643905	-0.37060108150412935	-0.2830930282727874	1.5782267983727398	-0.34254557646913314	-0.2712268981682352	1.8918491917048812	-0.5763358159790525	-0.2768785589366661	1.7473379114119016	-0.5545702559952859	-0.2961534240346947	1.616535934124555	-0.51750884917143	-0.28136695765602165	1.5894081307752213	-0.5622094785695178	-0.28034293388886417	1.5976787839464657	-0.5767281254387875	-0.2898532003799791	1.604915759797605	-0.48179009494798103	-0.2789408507994729	2.045624823291878	-0.5192551223790115	-0.24371533918595803	2.10214167236064	-0.568627920836851	-0.2848088382556232	2.042786450064097	-0.43912192453857535	-0.2771188509667137	1.9595482736801322	-0.4097579688961902	-0.2600016458280662	1.9975421322337807	-0.424499297958922	-0.267246933022627	2.0483883049368714	-0.6031803571538342	-0.2604391898972082	1.9697837931257778	-0.6332851656871504	-0.22323096950328594	2.0012750498011487	-0.726789270455449
